# xmcd
#
# Track frame offsets:
#	150
#	48758
#	69242
#	99089
#	169227
#	199753
#
# Disc length: 2880 seconds
#
# Revision: 0
# Processed by: cddbd v1.5.1PL2 Copyright (c) Steve Scherf et al.
# Submitted via: EasyCDDAExtractor 8.2.3.1
#
DISCID=420b3e06
DTITLE=Paul Barrere and Fred Tackett - The Ram's Head - Annapolis, MD 04-21-99 d
DTITLE=isc 2
DYEAR=1999
DGENRE=Blues
TTITLE0=Sailin' Shoes
TTITLE1=Eula *
TTITLE2=Old Folks Boogie *
TTITLE3=Dixie Chicken *
TTITLE4=Willin' *
TTITLE5=Feats Don't Fail Me Now
EXTD=
EXTT0=
EXTT1=
EXTT2=
EXTT3=
EXTT4=
EXTT5=
PLAYORDER=
